<?xml version="1.0" encoding="UTF-8"?>
<svg width="899px" height="159px" viewBox="0 0 899 159" version="1.1" xmlns="http://www.w3.org/2000/svg" xmlns:xlink="http://www.w3.org/1999/xlink">
    <!-- Generator: Sketch 52.2 (67145) - http://www.bohemiancoding.com/sketch -->
    <title>V SYSTEMS_Logo_Black</title>
    <desc>Created with Sketch.</desc>
    <g id="Page-1" stroke="none" stroke-width="1" fill="none" fill-rule="evenodd">
        <g id="V-SYSTEMS_Logo_Black">
            <path d="M59.57,1.88 L127.09,109.88 C127.900679,111.177083 127.900679,112.822917 127.09,114.12 L100.09,157.29 C99.7243287,157.873853 99.0839119,158.228409 98.395,158.228409 C97.7060881,158.228409 97.0656713,157.873853 96.7,157.29 L0.31,3.06 C-0.0747728607,2.44437238 -0.0957274424,1.66858091 0.25525171,1.03308019 C0.606230862,0.397579479 1.27402287,0.00217419412 2,0 L56.18,0 C57.5584504,0.000686080936 58.8394214,0.71107705 59.57,1.88 Z M194.79,2.22044605e-16 C195.515977,0.00217419412 196.183769,0.397579479 196.534748,1.03308019 C196.885727,1.66858091 196.864773,2.44437238 196.48,3.06 L160.09,61.29 C159.724329,61.8738528 159.083912,62.2284092 158.395,62.2284092 C157.706088,62.2284092 157.065671,61.8738528 156.7,61.29 L120.31,3.06 C119.925227,2.44437238 119.904273,1.66858091 120.255252,1.03308019 C120.606231,0.397579479 121.274023,0.00217419412 122,2.22044605e-16 L194.79,2.22044605e-16 Z" id="Shape" fill="#FF8837"></path>
            <path d="M272.47,128.14 L238.39,42 L255.68,42 L280.36,109.62 L304.91,42 L321.69,42 L287.51,128.15 L272.47,128.14 Z M387.76,116.45 C393.4,116.45 397.503333,115.496667 400.07,113.59 C402.626868,111.712511 404.072538,108.678481 403.92,105.51 C403.97285,103.645684 403.523869,101.801407 402.62,100.17 C401.66014,98.5980082 400.391189,97.2372027 398.89,96.17 C397.054102,94.82899 395.079436,93.689115 393,92.77 C390.68,91.77 388,90.77 385,89.77 C382,88.77 379.13,87.52 376.36,86.23 C373.687133,85.0143827 371.21269,83.4029607 369.02,81.45 C366.914987,79.501232 365.20988,77.1609552 364,74.56 C362.615198,71.5668266 361.931191,68.2972761 362,65 C362,57.2133333 364.693333,51.1 370.08,46.66 C375.466667,42.22 382.8,40.0033333 392.08,40.01 C396.927018,39.9404526 401.760106,40.5462714 406.44,41.81 C409.880134,42.7111095 413.197847,44.0274488 416.32,45.73 L411.5,58.4 C408.590778,56.783468 405.475709,55.5690619 402.24,54.79 C398.842426,53.9609089 395.357266,53.54457 391.86,53.55 C387.64,53.55 384.346667,54.42 381.98,56.16 C379.643741,57.8536583 378.31394,60.607173 378.44,63.49 C378.389086,65.2025432 378.796455,66.8976121 379.62,68.4 C380.479243,69.8450331 381.630419,71.0949786 383,72.07 C384.592772,73.2366397 386.297868,74.2416077 388.09,75.07 C390.043333,75.9766667 392.176667,76.8466667 394.49,77.68 C398.55,79.1666667 402.176667,80.6766667 405.37,82.21 C408.335198,83.5953729 411.062305,85.4415702 413.45,87.68 C415.622062,89.7879414 417.325717,92.3297944 418.45,95.14 C419.689963,98.4564877 420.280686,101.980455 420.19,105.52 C420.19,113.306667 417.433333,119.336667 411.92,123.61 C406.406667,127.883333 398.353333,130.013333 387.76,130 C384.49418,130.019568 381.231553,129.792254 378,129.32 C375.357423,128.924363 372.742282,128.36326 370.17,127.64 C368.16582,127.089594 366.195751,126.421774 364.27,125.64 C362.898987,125.077874 361.563216,124.433364 360.27,123.71 L364.87,110.91 C367.77394,112.425864 370.809789,113.674345 373.94,114.64 C378.424368,115.959023 383.087202,116.569713 387.76,116.45 Z M465.21,80.15 L485.85,42 L503.25,42 L472.67,94.32 L472.67,128.14 L457,128.14 L457,94.57 L426.3,42 L444.7,42 L465.21,80.15 Z M535.72,116.45 C541.36,116.45 545.463333,115.496667 548.03,113.59 C550.584013,111.710151 552.028907,108.67775 551.88,105.51 C551.93285,103.645684 551.483869,101.801407 550.58,100.17 C549.62014,98.5980082 548.351189,97.2372027 546.85,96.17 C545.005973,94.8416453 543.024611,93.7151854 540.94,92.81 C538.62,91.81 535.94,90.81 532.94,89.81 C529.94,88.81 527.07,87.56 524.3,86.27 C521.635466,85.0232614 519.174404,83.3814301 517,81.4 C514.875062,79.4723432 513.146169,77.1490366 511.91,74.56 C510.556153,71.5595523 509.90299,68.2903156 510,65 C510,57.2133333 512.693333,51.1 518.08,46.66 C523.466667,42.22 530.8,40.0033333 540.08,40.01 C544.927018,39.9404526 549.760106,40.5462714 554.44,41.81 C557.880134,42.7111095 561.197847,44.0274488 564.32,45.73 L559.46,58.4 C556.550778,56.783468 553.435709,55.5690619 550.2,54.79 C546.802305,53.9615793 543.317226,53.5452501 539.82,53.55 C535.6,53.55 532.306667,54.42 529.94,56.16 C527.603741,57.8536583 526.27394,60.607173 526.4,63.49 C526.349086,65.2025432 526.756455,66.8976121 527.58,68.4 C528.428379,69.8436653 529.569507,71.0937964 530.93,72.07 C532.52634,73.2366023 534.234748,74.2415481 536.03,75.07 C537.983333,75.9766667 540.116667,76.8466667 542.43,77.68 C546.49,79.1666667 550.116667,80.6766667 553.31,82.21 C556.275198,83.5953729 559.002305,85.4415702 561.39,87.68 C563.562756,89.7873622 565.266516,92.3293726 566.39,95.14 C567.633612,98.4557535 568.227741,101.979789 568.14,105.52 C568.14,113.306667 565.383333,119.336667 559.87,123.61 C554.356667,127.883333 546.306667,130.013333 535.72,130 C532.45418,130.019568 529.191553,129.792254 525.96,129.32 C523.317423,128.924363 520.702282,128.36326 518.13,127.64 C516.12582,127.089594 514.155751,126.421774 512.23,125.64 C510.858987,125.077874 509.523216,124.433364 508.23,123.71 L512.83,110.91 C515.73394,112.425864 518.769789,113.674345 521.9,114.64 C526.384368,115.959023 531.047202,116.569713 535.72,116.45 Z M645.33,42 L645.33,55.54 L618.85,55.54 L618.85,128.14 L603.06,128.14 L603.06,55.54 L576.58,55.54 L576.58,42 L645.33,42 Z M659.77,128.14 L659.77,42 L715.09,42 L715.09,55.3 L675.43,55.3 L675.43,76.55 L710.74,76.55 L710.74,89.55 L675.43,89.55 L675.43,114.78 L718.07,114.78 L718.07,128.09 L659.77,128.14 Z M826.6,128.14 L811.18,128.14 L807.89,66.35 L785.39,116.7 L773.7,116.7 L751.2,66.35 L747.91,128.14 L732.5,128.14 L739.2,42 L753.69,42 L779.79,97.57 L805.79,42 L819.9,42 L826.6,128.14 Z M866,116.45 C871.64,116.45 875.743333,115.496667 878.31,113.59 C880.864013,111.710151 882.308907,108.67775 882.16,105.51 C882.21285,103.645684 881.763869,101.801407 880.86,100.17 C879.90014,98.5980082 878.631189,97.2372027 877.13,96.17 C875.285973,94.8416453 873.304611,93.7151854 871.22,92.81 C868.9,91.81 866.22,90.81 863.27,89.81 C860.32,88.81 857.4,87.56 854.63,86.27 C851.95543,85.0574862 849.48054,83.4457728 847.29,81.49 C845.165062,79.5623432 843.436169,77.2390366 842.2,74.65 C840.808604,71.6277692 840.131133,68.3259531 840.22,65 C840.22,57.2133333 842.913333,51.1 848.3,46.66 C853.686667,42.22 861.02,40.0033333 870.3,40.01 C875.147018,39.9404526 879.980106,40.5462714 884.66,41.81 C888.100134,42.7111095 891.417847,44.0274488 894.54,45.73 L889.69,58.4 C886.780778,56.783468 883.665709,55.5690619 880.43,54.79 C877.032305,53.9615793 873.547226,53.5452501 870.05,53.55 C865.83,53.55 862.536667,54.42 860.17,56.16 C857.833741,57.8536583 856.50394,60.607173 856.63,63.49 C856.579086,65.2025432 856.986455,66.8976121 857.81,68.4 C858.658379,69.8436653 859.799507,71.0937964 861.16,72.07 C862.75634,73.2366023 864.464748,74.2415481 866.26,75.07 C868.213333,75.9766667 870.346667,76.8466667 872.66,77.68 C876.72,79.1666667 880.346667,80.6766667 883.54,82.21 C886.505198,83.5953729 889.232305,85.4415702 891.62,87.68 C893.795785,89.7848315 895.500008,92.327532 896.62,95.14 C897.859963,98.4564877 898.450686,101.980455 898.36,105.52 C898.36,113.306667 895.606667,119.336667 890.1,123.61 C884.593333,127.883333 876.56,130.013333 866,130 C862.73418,130.019568 859.471553,129.792254 856.24,129.32 C853.597423,128.924363 850.982282,128.36326 848.41,127.64 C846.40582,127.089594 844.435751,126.421774 842.51,125.64 C841.138987,125.077874 839.803216,124.433364 838.51,123.71 L843.11,110.91 C846.01394,112.425864 849.049789,113.674345 852.18,114.64 C856.664368,115.959023 861.327202,116.569713 866,116.45 Z" id="Text" fill="#323233"></path>
        </g>
    </g>
</svg>